<mxfile host="app.diagrams.net" modified="2023-06-07T13:33:56.164Z" agent="Mozilla/5.0 (X11; Linux x86_64) AppleWebKit/537.36 (KHTML, like Gecko) Chrome/109.0.0.0 Safari/537.36" version="21.3.6" etag="0NxVNK4fqQ8ss0h-ZkIF" type="github">
  <diagram name="Page-1" id="MpjXqbD84A68wVVmPbsp">
    <mxGraphModel>
      <root>
        <mxCell id="0" />
        <mxCell id="1" parent="0" />
      </root>
    </mxGraphModel>
  </diagram>
</mxfile>
